<svg xmlns="http://www.w3.org/2000/svg" xmlns:xlink="http://www.w3.org/1999/xlink" version="1.1" data-diagram-type="SEQUENCE" style="width:2282px;height:1705px;background:#FFFFFF;" width="2282.604px" height="1705.313px" viewBox="0 0 2282 1705" zoomAndPan="magnify" preserveAspectRatio="none" contentStyleType="text/css"><?plantuml 1.2026.8?><defs/><g font-family="sans-serif" lengthAdjust="spacing"><g class="title" data-source-line="2"><text x="768.364" y="64.379" fill="#0B3C49" font-size="38.958" textLength="743.024" font-weight="700" font-family="Calibri">Add a component with keywords (UC-2, UC-5)</text></g><rect x="23.021" y="551.013" width="2224.857" height="865.747" fill="none" style="stroke:#1F7A8C;stroke-width:2.656;" rx="10.625" ry="10.625"/><rect x="56.667" y="828.632" width="2146.94" height="563.336" fill="none" style="stroke:#1F7A8C;stroke-width:2.656;" rx="10.625" ry="10.625"/><rect x="1464.953" y="1025.257" width="694.383" height="183.24" fill="none" style="stroke:#1F7A8C;stroke-width:2.656;" rx="10.625" ry="10.625"/><g><title>Cataloguer</title><rect x="78.802" y="238.966" width="14.167" height="1311.914" fill="#000" fill-opacity="0"/><line x1="85" y1="238.966" x2="85" y2="1550.88" style="stroke:#1F7A8C;stroke-width:0.885;stroke-dasharray:8.854,8.854;"/></g><g><title>Web console</title><rect x="436.019" y="238.966" width="14.167" height="1311.914" fill="#000" fill-opacity="0"/><line x1="442.217" y1="238.966" x2="442.217" y2="1550.88" style="stroke:#1F7A8C;stroke-width:0.885;stroke-dasharray:8.854,8.854;"/></g><g><title>ComponentController</title><rect x="886.152" y="238.966" width="14.167" height="1311.914" fill="#000" fill-opacity="0"/><line x1="892.35" y1="238.966" x2="892.35" y2="1550.88" style="stroke:#1F7A8C;stroke-width:0.885;stroke-dasharray:8.854,8.854;"/></g><g><title>ComponentService</title><rect x="1487.088" y="238.966" width="14.167" height="1311.914" fill="#000" fill-opacity="0"/><line x1="1493.286" y1="238.966" x2="1493.286" y2="1550.88" style="stroke:#1F7A8C;stroke-width:0.885;stroke-dasharray:8.854,8.854;"/></g><g><title>PostgreSQL</title><rect x="2124.805" y="238.966" width="14.167" height="1311.914" fill="#000" fill-opacity="0"/><line x1="2131.003" y1="238.966" x2="2131.003" y2="1550.88" style="stroke:#1F7A8C;stroke-width:0.885;stroke-dasharray:8.854,8.854;"/></g><text x="24.832" y="232.768" fill="#10262B" font-size="24.792" textLength="109.71" font-family="Calibri">Cataloguer</text><ellipse cx="85" cy="117.504" rx="14.167" ry="14.167" fill="#F4A62A" style="stroke:#0B3C49;stroke-width:0.885;"/><path d="M85,131.671 L85,179.484 M61.979,145.838 L108.021,145.838 M85,179.484 L61.979,206.046 M85,179.484 L108.021,206.046" style="stroke:#0B3C49;stroke-width:0.885;" fill="none"/><rect x="364.622" y="182.14" width="155.19" height="55.055" fill="#E8F3F2" style="stroke:#1F7A8C;stroke-width:0.885;" rx="10.625" ry="10.625"/><text x="377.018" y="218.601" fill="#10262B" font-size="24.792" textLength="130.398" font-family="Calibri">Web console</text><rect x="769.662" y="182.14" width="245.375" height="55.055" fill="#E8F3F2" style="stroke:#1F7A8C;stroke-width:0.885;" rx="10.625" ry="10.625"/><text x="782.058" y="218.601" fill="#10262B" font-size="24.792" textLength="220.583" font-family="Calibri">ComponentController</text><rect x="1385.41" y="182.14" width="215.753" height="55.055" fill="#E8F3F2" style="stroke:#1F7A8C;stroke-width:0.885;" rx="10.625" ry="10.625"/><text x="1397.806" y="218.601" fill="#10262B" font-size="24.792" textLength="190.961" font-family="Calibri">ComponentService</text><text x="2068.178" y="232.768" fill="#10262B" font-size="24.792" textLength="115.025" font-family="Calibri">PostgreSQL</text><path d="M2099.128,144.952 C2099.128,127.244 2131.003,127.244 2131.003,127.244 C2131.003,127.244 2162.878,127.244 2162.878,144.952 L2162.878,190.994 C2162.878,208.702 2131.003,208.702 2131.003,208.702 C2131.003,208.702 2099.128,208.702 2099.128,190.994 L2099.128,144.952" style="stroke:#181818;stroke-width:0.885;" fill="#E2E2F0"/><path d="M2099.128,144.952 C2099.128,162.661 2131.003,162.661 2131.003,162.661 C2131.003,162.661 2162.878,162.661 2162.878,144.952" style="stroke:#181818;stroke-width:0.885;" fill="none"/><text x="24.832" y="1574.945" fill="#10262B" font-size="24.792" textLength="109.71" font-family="Calibri">Cataloguer</text><ellipse cx="85" cy="1596.195" rx="14.167" ry="14.167" fill="#F4A62A" style="stroke:#0B3C49;stroke-width:0.885;"/><path d="M85,1610.362 L85,1658.174 M61.979,1624.529 L108.021,1624.529 M85,1658.174 L61.979,1684.737 M85,1658.174 L108.021,1684.737" style="stroke:#0B3C49;stroke-width:0.885;" fill="none"/><rect x="364.622" y="1550.88" width="155.19" height="55.055" fill="#E8F3F2" style="stroke:#1F7A8C;stroke-width:0.885;" rx="10.625" ry="10.625"/><text x="377.018" y="1587.341" fill="#10262B" font-size="24.792" textLength="130.398" font-family="Calibri">Web console</text><rect x="769.662" y="1550.88" width="245.375" height="55.055" fill="#E8F3F2" style="stroke:#1F7A8C;stroke-width:0.885;" rx="10.625" ry="10.625"/><text x="782.058" y="1587.341" fill="#10262B" font-size="24.792" textLength="220.583" font-family="Calibri">ComponentController</text><rect x="1385.41" y="1550.88" width="215.753" height="55.055" fill="#E8F3F2" style="stroke:#1F7A8C;stroke-width:0.885;" rx="10.625" ry="10.625"/><text x="1397.806" y="1587.341" fill="#10262B" font-size="24.792" textLength="190.961" font-family="Calibri">ComponentService</text><text x="2068.178" y="1574.945" fill="#10262B" font-size="24.792" textLength="115.025" font-family="Calibri">PostgreSQL</text><path d="M2099.128,1598.852 C2099.128,1581.143 2131.003,1581.143 2131.003,1581.143 C2131.003,1581.143 2162.878,1581.143 2162.878,1598.852 L2162.878,1644.893 C2162.878,1662.602 2131.003,1662.602 2131.003,1662.602 C2131.003,1662.602 2099.128,1662.602 2099.128,1644.893 L2099.128,1598.852" style="stroke:#181818;stroke-width:0.885;" fill="#E2E2F0"/><path d="M2099.128,1598.852 C2099.128,1616.56 2131.003,1616.56 2131.003,1616.56 C2131.003,1616.56 2162.878,1616.56 2162.878,1598.852" style="stroke:#181818;stroke-width:0.885;" fill="none"/><polygon points="420.967,284.776,438.676,291.859,420.967,298.942,428.051,291.859" fill="#0B3C49" style="stroke:#0B3C49;stroke-width:1.771;stroke-linejoin:miter;stroke-miterlimit:10;"/><line x1="85" y1="291.859" x2="431.592" y2="291.859" style="stroke:#0B3C49;stroke-width:1.771;"/><text x="97.396" y="282.562" fill="#10262B" font-size="23.021" font-weight="700" font-family="Calibri">1</text><text x="116.147" y="282.562" fill="#10262B" font-size="23.021" textLength="295.966" font-family="Calibri">fill the form, add keyword chips</text><polygon points="420.967,337.669,438.676,344.752,420.967,351.836,428.051,344.752" fill="#0B3C49" style="stroke:#0B3C49;stroke-width:1.771;stroke-linejoin:miter;stroke-miterlimit:10;"/><line x1="85" y1="344.752" x2="431.592" y2="344.752" style="stroke:#0B3C49;stroke-width:1.771;"/><text x="97.396" y="335.455" fill="#10262B" font-size="23.021" font-weight="700" font-family="Calibri">2</text><text x="116.147" y="335.455" fill="#10262B" font-size="23.021" textLength="64.577" font-family="Calibri">submit</text><polygon points="871.1,390.562,888.808,397.645,871.1,404.729,878.183,397.645" fill="#0B3C49" style="stroke:#0B3C49;stroke-width:1.771;stroke-linejoin:miter;stroke-miterlimit:10;"/><line x1="442.217" y1="397.645" x2="881.725" y2="397.645" style="stroke:#0B3C49;stroke-width:1.771;"/><text x="454.613" y="388.349" fill="#10262B" font-size="23.021" font-weight="700" font-family="Calibri">3</text><text x="473.364" y="388.349" fill="#10262B" font-size="23.021" textLength="388.881" font-family="Calibri">POST /api/v1/components (Bearer token)</text><line x1="892.35" y1="506.742" x2="966.725" y2="506.742" style="stroke:#0B3C49;stroke-width:1.771;"/><line x1="966.725" y1="506.742" x2="966.725" y2="529.763" style="stroke:#0B3C49;stroke-width:1.771;"/><line x1="894.12" y1="529.763" x2="966.725" y2="529.763" style="stroke:#0B3C49;stroke-width:1.771;"/><polygon points="911.829,522.679,894.12,529.763,911.829,536.846,904.745,529.763" fill="#0B3C49" style="stroke:#0B3C49;stroke-width:1.771;stroke-linejoin:miter;stroke-miterlimit:10;"/><text x="904.745" y="469.343" fill="#10262B" font-size="23.021" font-weight="700" font-family="Calibri">4</text><text x="923.497" y="441.242" fill="#10262B" font-size="23.021" textLength="306.397" font-family="Calibri">authenticate, requireCataloguer,</text><text x="923.497" y="469.343" fill="#10262B" font-size="23.021" textLength="188.843" font-family="Calibri">parse body with zod</text><text x="923.497" y="497.445" fill="#10262B" font-size="23.021" textLength="308.196" font-family="Calibri">(keywords trimmed, lowercased)</text><path d="M33.646,551.013 L127.708,551.013 L127.708,564.948 L109.999,582.656 L23.021,582.656 L23.021,561.638 A10.625,10.625 0 0 1 33.646,551.013" style="stroke:#1F7A8C;stroke-width:2.656;" fill="#FFF"/><rect x="23.021" y="551.013" width="2224.857" height="865.747" fill="none" style="stroke:#1F7A8C;stroke-width:2.656;" rx="10.625" ry="10.625"/><text x="49.583" y="575.13" fill="#10262B" font-size="23.021" textLength="24.999" font-weight="700" font-family="Calibri">alt</text><text x="154.27" y="573.463" fill="#10262B" font-size="19.479" textLength="390.021" font-weight="700" font-family="Calibri">[not logged in, not a cataloguer, or invalid body]</text><polygon points="461.696,632.008,443.988,639.091,461.696,646.174,454.613,639.091" fill="#0B3C49" style="stroke:#0B3C49;stroke-width:1.771;stroke-linejoin:miter;stroke-miterlimit:10;"/><line x1="451.071" y1="639.091" x2="890.579" y2="639.091" style="stroke:#0B3C49;stroke-width:1.771;stroke-dasharray:3.542,3.542;"/><text x="472.321" y="629.794" fill="#10262B" font-size="23.021" font-weight="700" font-family="Calibri">5</text><text x="491.072" y="629.794" fill="#10262B" font-size="23.021" textLength="340.726" font-family="Calibri">401 / 403 / 400 VALIDATION_ERROR</text><line x1="23.021" y1="655.028" x2="2247.878" y2="655.028" style="stroke:#1F7A8C;stroke-width:1.771;stroke-dasharray:3.542,3.542;"/><text x="31.875" y="677.479" fill="#10262B" font-size="19.479" textLength="117.874" font-weight="700" font-family="Calibri">[valid request]</text><polygon points="1472.036,719.304,1489.745,726.388,1472.036,733.471,1479.12,726.388" fill="#0B3C49" style="stroke:#0B3C49;stroke-width:1.771;stroke-linejoin:miter;stroke-miterlimit:10;"/><line x1="892.35" y1="726.388" x2="1482.661" y2="726.388" style="stroke:#0B3C49;stroke-width:1.771;"/><text x="904.745" y="717.091" fill="#10262B" font-size="23.021" font-weight="700" font-family="Calibri">6</text><text x="923.497" y="717.091" fill="#10262B" font-size="23.021" textLength="182.795" font-family="Calibri">create(dto, actorId)</text><polygon points="2109.753,800.299,2127.461,807.382,2109.753,814.466,2116.836,807.382" fill="#0B3C49" style="stroke:#0B3C49;stroke-width:1.771;stroke-linejoin:miter;stroke-miterlimit:10;"/><line x1="1493.286" y1="807.382" x2="2120.378" y2="807.382" style="stroke:#0B3C49;stroke-width:1.771;"/><text x="1505.682" y="784.035" fill="#10262B" font-size="23.021" font-weight="700" font-family="Calibri">7</text><text x="1524.433" y="769.984" fill="#10262B" font-size="23.021" textLength="389.499" font-family="Calibri">check that the notation exists and its kind</text><text x="1524.433" y="798.086" fill="#10262B" font-size="23.021" textLength="519.576" font-family="Calibri">matches the component kind; check the category exists</text><path d="M67.292,828.632 L161.353,828.632 L161.353,842.567 L143.645,860.276 L56.667,860.276 L56.667,839.257 A10.625,10.625 0 0 1 67.292,828.632" style="stroke:#1F7A8C;stroke-width:2.656;" fill="#FFF"/><rect x="56.667" y="828.632" width="2146.94" height="563.336" fill="none" style="stroke:#1F7A8C;stroke-width:2.656;" rx="10.625" ry="10.625"/><text x="83.229" y="852.75" fill="#10262B" font-size="23.021" textLength="24.999" font-weight="700" font-family="Calibri">alt</text><text x="187.916" y="851.083" fill="#10262B" font-size="19.479" textLength="456.239" font-weight="700" font-family="Calibri">[notation kind differs, or notation or category unknown]</text><polygon points="911.829,909.627,894.12,916.711,911.829,923.794,904.745,916.711" fill="#0B3C49" style="stroke:#0B3C49;stroke-width:1.771;stroke-linejoin:miter;stroke-miterlimit:10;"/><line x1="901.204" y1="916.711" x2="1491.516" y2="916.711" style="stroke:#0B3C49;stroke-width:1.771;stroke-dasharray:3.542,3.542;"/><text x="922.454" y="907.414" fill="#10262B" font-size="23.021" font-weight="700" font-family="Calibri">8</text><text x="941.205" y="907.414" fill="#10262B" font-size="23.021" textLength="539.686" font-family="Calibri">NOTATION_KIND_MISMATCH (422) or NOT_FOUND (404)</text><polygon points="461.696,962.521,443.988,969.604,461.696,976.687,454.613,969.604" fill="#0B3C49" style="stroke:#0B3C49;stroke-width:1.771;stroke-linejoin:miter;stroke-miterlimit:10;"/><line x1="451.071" y1="969.604" x2="890.579" y2="969.604" style="stroke:#0B3C49;stroke-width:1.771;stroke-dasharray:3.542,3.542;"/><text x="472.321" y="960.307" fill="#10262B" font-size="23.021" font-weight="700" font-family="Calibri">9</text><text x="491.072" y="960.307" fill="#10262B" font-size="23.021" textLength="134.045" font-family="Calibri">error message</text><line x1="56.667" y1="985.541" x2="2203.607" y2="985.541" style="stroke:#1F7A8C;stroke-width:1.771;stroke-dasharray:3.542,3.542;"/><text x="65.521" y="1007.992" fill="#10262B" font-size="19.479" textLength="106.346" font-weight="700" font-family="Calibri">[checks pass]</text><path d="M1475.578,1025.257 L1694.591,1025.257 L1694.591,1039.192 L1676.882,1056.9 L1464.953,1056.9 L1464.953,1035.882 A10.625,10.625 0 0 1 1475.578,1025.257" style="stroke:#1F7A8C;stroke-width:2.656;" fill="#FFF"/><rect x="1464.953" y="1025.257" width="694.383" height="183.24" fill="none" style="stroke:#1F7A8C;stroke-width:2.656;" rx="10.625" ry="10.625"/><text x="1491.516" y="1049.374" fill="#10262B" font-size="23.021" textLength="149.95" font-weight="700" font-family="Calibri">one transaction</text><polygon points="2109.753,1134.354,2127.461,1141.437,2109.753,1148.52,2116.836,1141.437" fill="#0B3C49" style="stroke:#0B3C49;stroke-width:1.771;stroke-linejoin:miter;stroke-miterlimit:10;"/><line x1="1493.286" y1="1141.437" x2="2120.378" y2="1141.437" style="stroke:#0B3C49;stroke-width:1.771;"/><text x="1505.682" y="1118.089" fill="#10262B" font-size="23.021" textLength="23.336" font-weight="700" font-family="Calibri">10</text><text x="1536.101" y="1104.038" fill="#10262B" font-size="23.021" textLength="338.388" font-family="Calibri">insert Component with its keywords</text><text x="1536.101" y="1132.14" fill="#10262B" font-size="23.021" textLength="564.797" font-family="Calibri">(Keyword rows found or created, ComponentKeyword rows)</text><polygon points="2109.753,1187.247,2127.461,1194.33,2109.753,1201.414,2116.836,1194.33" fill="#0B3C49" style="stroke:#0B3C49;stroke-width:1.771;stroke-linejoin:miter;stroke-miterlimit:10;"/><line x1="1493.286" y1="1194.33" x2="2120.378" y2="1194.33" style="stroke:#0B3C49;stroke-width:1.771;"/><text x="1505.682" y="1185.033" fill="#10262B" font-size="23.021" textLength="23.336" font-weight="700" font-family="Calibri">11</text><text x="1536.101" y="1185.033" fill="#10262B" font-size="23.021" textLength="356.913" font-family="Calibri">insert AuditLog COMPONENT_CREATE</text><polygon points="911.829,1264.932,894.12,1272.015,911.829,1279.099,904.745,1272.015" fill="#0B3C49" style="stroke:#0B3C49;stroke-width:1.771;stroke-linejoin:miter;stroke-miterlimit:10;"/><line x1="901.204" y1="1272.015" x2="1491.516" y2="1272.015" style="stroke:#0B3C49;stroke-width:1.771;stroke-dasharray:3.542,3.542;"/><text x="922.454" y="1262.718" fill="#10262B" font-size="23.021" textLength="23.336" font-weight="700" font-family="Calibri">12</text><text x="952.873" y="1262.718" fill="#10262B" font-size="23.021" textLength="249.868" font-family="Calibri">component with keywords</text><polygon points="461.696,1317.825,443.988,1324.908,461.696,1331.992,454.613,1324.908" fill="#0B3C49" style="stroke:#0B3C49;stroke-width:1.771;stroke-linejoin:miter;stroke-miterlimit:10;"/><line x1="451.071" y1="1324.908" x2="890.579" y2="1324.908" style="stroke:#0B3C49;stroke-width:1.771;stroke-dasharray:3.542,3.542;"/><text x="472.321" y="1315.612" fill="#10262B" font-size="23.021" textLength="23.336" font-weight="700" font-family="Calibri">13</text><text x="502.74" y="1315.612" fill="#10262B" font-size="23.021" textLength="114.25" font-family="Calibri">201 Created</text><polygon points="104.479,1370.718,86.771,1377.802,104.479,1384.885,97.396,1377.802" fill="#0B3C49" style="stroke:#0B3C49;stroke-width:1.771;stroke-linejoin:miter;stroke-miterlimit:10;"/><line x1="93.854" y1="1377.802" x2="440.446" y2="1377.802" style="stroke:#0B3C49;stroke-width:1.771;stroke-dasharray:3.542,3.542;"/><text x="115.104" y="1368.505" fill="#10262B" font-size="23.021" textLength="23.336" font-weight="700" font-family="Calibri">14</text><text x="145.523" y="1368.505" fill="#10262B" font-size="23.021" textLength="216.528" font-family="Calibri">component detail page</text><path d="M211.451,1461.031 L211.451,1512.385 A10.625,10.625 0 0 0 222.076,1523.01 L661.242,1523.01 A10.625,10.625 0 0 0 671.867,1512.385 L671.867,1468.114 L654.159,1450.406 L222.076,1450.406 A10.625,10.625 0 0 0 211.451,1461.031" style="stroke:#F4A62A;stroke-width:0.885;" fill="#FFF3D6"/><path d="M654.159,1450.406 L654.159,1462.802 A5.313,5.313 0 0 0 659.472,1468.114 L671.867,1468.114 L654.159,1450.406" style="stroke:#F4A62A;stroke-width:0.885;" fill="#FFF3D6"/><text x="222.076" y="1481.606" fill="#10262B" font-size="23.021" textLength="424.345" font-family="Calibri">Keyword suggestions while typing come from</text><text x="222.076" y="1509.708" fill="#10262B" font-size="23.021" textLength="234.558" font-family="Calibri">GET /keywords?prefix=...</text><?plantuml-src TLHDSzem4BtxLsnpWXa-4ffUscawnD2MIO9J8EMI6KPOYz4WIwuaG-Ylxqes7yqa1uJbVRjwx-tA7uHAPSaHR9hQjbjZZfsYp6NaX9C8VSw1GQhpGYjK3dR2hM63-vqst4BZAMxtMa3hfsR4IgTLcI_HH2nrsa3C79CwA-b5mOmJgIWObRYOuv8gAgibNW2pCFyl71_EYhLoHak9neFYjq5JD5kHeaTC8qu7Bfb5UDJMPGQdl-vzO70RHISkqBw1ENo6bP0II2-ijCbRm4XehGlIjIZi6ocsNER2HNE_Zsd_c4ndq6M5w6wlkaUFo9PRP8RIdDwWQaRn0KyEhGaWKkQm1GR_bCBWwPZMioADH7-f-Rvo-g_cpwfnzDiPaUV8Mo3r3arAKZdvBXqexUXTbY47eLfXIrqxLGPgXr1R9WKFrICWGkrQrlNb5NHf_HZMI_ZTlnyD-hDHCbuC9vDa4g4aKbMo9utMLVatCANqr23fQN2doKNV-16H0WfHV73h0MjCDsGrSy5l8iUSq0hmHLXoYoaYJVyReKXipXpXRK2Unix7lXmBePU6cJRxkWOTLxjGLVPmu6ArGcE3zcE4de-vfTeelLEK7DZMJHediqhxtMWyM3oCfW_zMVmJ6jUzNjEdKtpnFNaQ3-ZLvNKpP9-yH6C8awErB4EA1Ui2Rmi5ipR0CwFB0aWPDPGfIwOHjH0vjqqeY-PirAk924xLyq2ZSLUFhD4xIvDSaculCRI4vkIOV8vhldTKl-J2tUiCukJXCHaFnxD5F1dsPyEGW8g_ikgTpy8hIteqNd55A4JcLVxfTfqNukYOa6HLvHuTwN_KFWIz9QmlUD1YInfuwxspi5iB-bgvVI5KvilHjJOwVrO_XdH33yI-5GPNukLhfzFv1m00?></g></svg>