<svg xmlns="http://www.w3.org/2000/svg" xmlns:xlink="http://www.w3.org/1999/xlink" version="1.1" data-diagram-type="SEQUENCE" style="width:2130px;height:1712px;background:#FFFFFF;" width="2130.313px" height="1712.396px" viewBox="0 0 2130 1712" zoomAndPan="magnify" preserveAspectRatio="none" contentStyleType="text/css"><?plantuml 1.2026.8?><defs/><g font-family="sans-serif" lengthAdjust="spacing"><g class="title" data-source-line="2"><text x="847.317" y="64.379" fill="#0B3C49" font-size="38.958" textLength="433.126" font-weight="700" font-family="Calibri">Search by keywords (UC-6)</text></g><rect x="23.021" y="441.916" width="2072.865" height="1072.558" fill="none" style="stroke:#1F7A8C;stroke-width:2.656;" rx="10.625" ry="10.625"/><rect x="1039.897" y="638.541" width="1011.718" height="208.031" fill="none" style="stroke:#1F7A8C;stroke-width:2.656;" rx="10.625" ry="10.625"/><rect x="1039.897" y="1091.56" width="1011.718" height="211.341" fill="none" style="stroke:#1F7A8C;stroke-width:2.656;" rx="10.625" ry="10.625"/><g><title>User</title><rect x="45.156" y="238.966" width="14.167" height="1318.008" fill="#000" fill-opacity="0"/><line x1="51.354" y1="238.966" x2="51.354" y2="1556.974" style="stroke:#1F7A8C;stroke-width:0.885;stroke-dasharray:8.854,8.854;"/></g><g><title>Web app</title><rect x="449.786" y="238.966" width="14.167" height="1318.008" fill="#000" fill-opacity="0"/><line x1="455.984" y1="238.966" x2="455.984" y2="1556.974" style="stroke:#1F7A8C;stroke-width:0.885;stroke-dasharray:8.854,8.854;"/></g><g><title>SearchController</title><rect x="743.157" y="238.966" width="14.167" height="1318.008" fill="#000" fill-opacity="0"/><line x1="749.355" y1="238.966" x2="749.355" y2="1556.974" style="stroke:#1F7A8C;stroke-width:0.885;stroke-dasharray:8.854,8.854;"/></g><g><title>SearchService</title><rect x="1062.032" y="238.966" width="14.167" height="1318.008" fill="#000" fill-opacity="0"/><line x1="1068.23" y1="238.966" x2="1068.23" y2="1556.974" style="stroke:#1F7A8C;stroke-width:0.885;stroke-dasharray:8.854,8.854;"/></g><g><title>ComponentService</title><rect x="1564.996" y="238.966" width="14.167" height="1318.008" fill="#000" fill-opacity="0"/><line x1="1571.193" y1="238.966" x2="1571.193" y2="1556.974" style="stroke:#1F7A8C;stroke-width:0.885;stroke-dasharray:8.854,8.854;"/></g><g><title>PostgreSQL</title><rect x="2017.084" y="238.966" width="14.167" height="1318.008" fill="#000" fill-opacity="0"/><line x1="2023.282" y1="238.966" x2="2023.282" y2="1556.974" style="stroke:#1F7A8C;stroke-width:0.885;stroke-dasharray:8.854,8.854;"/></g><text x="22.751" y="232.768" fill="#10262B" font-size="24.792" textLength="46.581" font-family="Calibri">User</text><ellipse cx="51.354" cy="117.504" rx="14.167" ry="14.167" fill="#F4A62A" style="stroke:#0B3C49;stroke-width:0.885;"/><path d="M51.354,131.671 L51.354,179.484 M28.333,145.838 L74.375,145.838 M51.354,179.484 L28.333,206.046 M51.354,179.484 L74.375,206.046" style="stroke:#0B3C49;stroke-width:0.885;" fill="none"/><rect x="398.115" y="182.14" width="115.739" height="55.055" fill="#E8F3F2" style="stroke:#1F7A8C;stroke-width:0.885;" rx="10.625" ry="10.625"/><text x="410.511" y="218.601" fill="#10262B" font-size="24.792" textLength="90.947" font-family="Calibri">Web app</text><rect x="652.234" y="182.14" width="194.242" height="55.055" fill="#E8F3F2" style="stroke:#1F7A8C;stroke-width:0.885;" rx="10.625" ry="10.625"/><text x="664.63" y="218.601" fill="#10262B" font-size="24.792" textLength="169.45" font-family="Calibri">SearchController</text><rect x="985.92" y="182.14" width="164.62" height="55.055" fill="#E8F3F2" style="stroke:#1F7A8C;stroke-width:0.885;" rx="10.625" ry="10.625"/><text x="998.316" y="218.601" fill="#10262B" font-size="24.792" textLength="139.828" font-family="Calibri">SearchService</text><rect x="1463.317" y="182.14" width="215.753" height="55.055" fill="#E8F3F2" style="stroke:#1F7A8C;stroke-width:0.885;" rx="10.625" ry="10.625"/><text x="1475.713" y="218.601" fill="#10262B" font-size="24.792" textLength="190.961" font-family="Calibri">ComponentService</text><text x="1960.457" y="232.768" fill="#10262B" font-size="24.792" textLength="115.025" font-family="Calibri">PostgreSQL</text><path d="M1991.407,144.952 C1991.407,127.244 2023.282,127.244 2023.282,127.244 C2023.282,127.244 2055.157,127.244 2055.157,144.952 L2055.157,190.994 C2055.157,208.702 2023.282,208.702 2023.282,208.702 C2023.282,208.702 1991.407,208.702 1991.407,190.994 L1991.407,144.952" style="stroke:#181818;stroke-width:0.885;" fill="#E2E2F0"/><path d="M1991.407,144.952 C1991.407,162.661 2023.282,162.661 2023.282,162.661 C2023.282,162.661 2055.157,162.661 2055.157,144.952" style="stroke:#181818;stroke-width:0.885;" fill="none"/><text x="22.751" y="1581.039" fill="#10262B" font-size="24.792" textLength="46.581" font-family="Calibri">User</text><ellipse cx="51.354" cy="1602.289" rx="14.167" ry="14.167" fill="#F4A62A" style="stroke:#0B3C49;stroke-width:0.885;"/><path d="M51.354,1616.456 L51.354,1664.269 M28.333,1630.623 L74.375,1630.623 M51.354,1664.269 L28.333,1690.831 M51.354,1664.269 L74.375,1690.831" style="stroke:#0B3C49;stroke-width:0.885;" fill="none"/><rect x="398.115" y="1556.974" width="115.739" height="55.055" fill="#E8F3F2" style="stroke:#1F7A8C;stroke-width:0.885;" rx="10.625" ry="10.625"/><text x="410.511" y="1593.435" fill="#10262B" font-size="24.792" textLength="90.947" font-family="Calibri">Web app</text><rect x="652.234" y="1556.974" width="194.242" height="55.055" fill="#E8F3F2" style="stroke:#1F7A8C;stroke-width:0.885;" rx="10.625" ry="10.625"/><text x="664.63" y="1593.435" fill="#10262B" font-size="24.792" textLength="169.45" font-family="Calibri">SearchController</text><rect x="985.92" y="1556.974" width="164.62" height="55.055" fill="#E8F3F2" style="stroke:#1F7A8C;stroke-width:0.885;" rx="10.625" ry="10.625"/><text x="998.316" y="1593.435" fill="#10262B" font-size="24.792" textLength="139.828" font-family="Calibri">SearchService</text><rect x="1463.317" y="1556.974" width="215.753" height="55.055" fill="#E8F3F2" style="stroke:#1F7A8C;stroke-width:0.885;" rx="10.625" ry="10.625"/><text x="1475.713" y="1593.435" fill="#10262B" font-size="24.792" textLength="190.961" font-family="Calibri">ComponentService</text><text x="1960.457" y="1581.039" fill="#10262B" font-size="24.792" textLength="115.025" font-family="Calibri">PostgreSQL</text><path d="M1991.407,1604.946 C1991.407,1587.237 2023.282,1587.237 2023.282,1587.237 C2023.282,1587.237 2055.157,1587.237 2055.157,1604.946 L2055.157,1650.987 C2055.157,1668.696 2023.282,1668.696 2023.282,1668.696 C2023.282,1668.696 1991.407,1668.696 1991.407,1650.987 L1991.407,1604.946" style="stroke:#181818;stroke-width:0.885;" fill="#E2E2F0"/><path d="M1991.407,1604.946 C1991.407,1622.654 2023.282,1622.654 2023.282,1622.654 C2023.282,1622.654 2055.157,1622.654 2055.157,1604.946" style="stroke:#181818;stroke-width:0.885;" fill="none"/><polygon points="434.734,284.776,452.443,291.859,434.734,298.942,441.818,291.859" fill="#0B3C49" style="stroke:#0B3C49;stroke-width:1.771;stroke-linejoin:miter;stroke-miterlimit:10;"/><line x1="51.354" y1="291.859" x2="445.359" y2="291.859" style="stroke:#0B3C49;stroke-width:1.771;"/><text x="63.75" y="282.562" fill="#10262B" font-size="23.021" font-weight="700" font-family="Calibri">1</text><text x="82.501" y="282.562" fill="#10262B" font-size="23.021" textLength="343.379" font-family="Calibri">enter 1-10 keywords, any / all, filters</text><polygon points="728.105,337.669,745.813,344.752,728.105,351.836,735.188,344.752" fill="#0B3C49" style="stroke:#0B3C49;stroke-width:1.771;stroke-linejoin:miter;stroke-miterlimit:10;"/><line x1="455.984" y1="344.752" x2="738.73" y2="344.752" style="stroke:#0B3C49;stroke-width:1.771;"/><text x="468.38" y="335.455" fill="#10262B" font-size="23.021" font-weight="700" font-family="Calibri">2</text><text x="487.131" y="335.455" fill="#10262B" font-size="23.021" textLength="192.62" font-family="Calibri">POST /api/v1/search</text><line x1="749.355" y1="397.645" x2="823.73" y2="397.645" style="stroke:#0B3C49;stroke-width:1.771;"/><line x1="823.73" y1="397.645" x2="823.73" y2="420.666" style="stroke:#0B3C49;stroke-width:1.771;"/><line x1="751.126" y1="420.666" x2="823.73" y2="420.666" style="stroke:#0B3C49;stroke-width:1.771;"/><polygon points="768.834,413.583,751.126,420.666,768.834,427.75,761.751,420.666" fill="#0B3C49" style="stroke:#0B3C49;stroke-width:1.771;stroke-linejoin:miter;stroke-miterlimit:10;"/><text x="761.751" y="388.349" fill="#10262B" font-size="23.021" font-weight="700" font-family="Calibri">3</text><text x="780.502" y="388.349" fill="#10262B" font-size="23.021" textLength="188.843" font-family="Calibri">parse body with zod</text><path d="M33.646,441.916 L127.708,441.916 L127.708,455.851 L109.999,473.56 L23.021,473.56 L23.021,452.541 A10.625,10.625 0 0 1 33.646,441.916" style="stroke:#1F7A8C;stroke-width:2.656;" fill="#FFF"/><rect x="23.021" y="441.916" width="2072.865" height="1072.558" fill="none" style="stroke:#1F7A8C;stroke-width:2.656;" rx="10.625" ry="10.625"/><text x="49.583" y="466.034" fill="#10262B" font-size="23.021" textLength="24.999" font-weight="700" font-family="Calibri">alt</text><text x="154.27" y="464.366" fill="#10262B" font-size="19.479" textLength="111.748" font-weight="700" font-family="Calibri">[invalid body]</text><polygon points="475.464,522.911,457.755,529.995,475.464,537.078,468.38,529.995" fill="#0B3C49" style="stroke:#0B3C49;stroke-width:1.771;stroke-linejoin:miter;stroke-miterlimit:10;"/><line x1="464.839" y1="529.995" x2="747.584" y2="529.995" style="stroke:#0B3C49;stroke-width:1.771;stroke-dasharray:3.542,3.542;"/><text x="486.089" y="520.698" fill="#10262B" font-size="23.021" font-weight="700" font-family="Calibri">4</text><text x="504.84" y="520.698" fill="#10262B" font-size="23.021" textLength="232.119" font-family="Calibri">400 VALIDATION_ERROR</text><line x1="23.021" y1="545.932" x2="2095.886" y2="545.932" style="stroke:#1F7A8C;stroke-width:1.771;stroke-dasharray:3.542,3.542;"/><text x="31.875" y="568.382" fill="#10262B" font-size="19.479" textLength="96.511" font-weight="700" font-family="Calibri">[valid body]</text><polygon points="1046.98,610.208,1064.688,617.291,1046.98,624.374,1054.063,617.291" fill="#0B3C49" style="stroke:#0B3C49;stroke-width:1.771;stroke-linejoin:miter;stroke-miterlimit:10;"/><line x1="749.355" y1="617.291" x2="1057.605" y2="617.291" style="stroke:#0B3C49;stroke-width:1.771;"/><text x="761.751" y="607.994" fill="#10262B" font-size="23.021" font-weight="700" font-family="Calibri">5</text><text x="780.502" y="607.994" fill="#10262B" font-size="23.021" textLength="202.14" font-family="Calibri">search(body, userId?)</text><path d="M1050.522,638.541 L1152.295,638.541 L1152.295,652.476 L1134.586,670.184 L1039.897,670.184 L1039.897,649.166 A10.625,10.625 0 0 1 1050.522,638.541" style="stroke:#1F7A8C;stroke-width:2.656;" fill="#FFF"/><rect x="1039.897" y="638.541" width="1011.718" height="208.031" fill="none" style="stroke:#1F7A8C;stroke-width:2.656;" rx="10.625" ry="10.625"/><text x="1066.459" y="662.658" fill="#10262B" font-size="23.021" textLength="32.71" font-weight="700" font-family="Calibri">opt</text><text x="1178.857" y="660.991" fill="#10262B" font-size="19.479" textLength="186.165" font-weight="700" font-family="Calibri">[a category filter is set]</text><polygon points="1549.943,719.536,1567.652,726.619,1549.943,733.703,1557.027,726.619" fill="#0B3C49" style="stroke:#0B3C49;stroke-width:1.771;stroke-linejoin:miter;stroke-miterlimit:10;"/><line x1="1068.23" y1="726.619" x2="1560.568" y2="726.619" style="stroke:#0B3C49;stroke-width:1.771;"/><text x="1080.626" y="717.322" fill="#10262B" font-size="23.021" font-weight="700" font-family="Calibri">6</text><text x="1099.377" y="717.322" fill="#10262B" font-size="23.021" textLength="441.712" font-family="Calibri">categoryFilter(categoryId, includeDescendants)</text><polygon points="2002.032,772.429,2019.74,779.513,2002.032,786.596,2009.115,779.513" fill="#0B3C49" style="stroke:#0B3C49;stroke-width:1.771;stroke-linejoin:miter;stroke-miterlimit:10;"/><line x1="1571.193" y1="779.513" x2="2012.657" y2="779.513" style="stroke:#0B3C49;stroke-width:1.771;"/><text x="1583.589" y="770.216" fill="#10262B" font-size="23.021" font-weight="700" font-family="Calibri">7</text><text x="1602.34" y="770.216" fill="#10262B" font-size="23.021" textLength="390.837" font-family="Calibri">descendant category ids (recursive query)</text><polygon points="1087.709,825.322,1070.001,832.406,1087.709,839.489,1080.626,832.406" fill="#0B3C49" style="stroke:#0B3C49;stroke-width:1.771;stroke-linejoin:miter;stroke-miterlimit:10;"/><line x1="1077.084" y1="832.406" x2="1569.423" y2="832.406" style="stroke:#0B3C49;stroke-width:1.771;stroke-dasharray:3.542,3.542;"/><text x="1098.334" y="823.109" fill="#10262B" font-size="23.021" font-weight="700" font-family="Calibri">8</text><text x="1117.085" y="823.109" fill="#10262B" font-size="23.021" textLength="112.935" font-family="Calibri">category ids</text><polygon points="2002.032,903.007,2019.74,910.091,2002.032,917.174,2009.115,910.091" fill="#0B3C49" style="stroke:#0B3C49;stroke-width:1.771;stroke-linejoin:miter;stroke-miterlimit:10;"/><line x1="1068.23" y1="910.091" x2="2012.657" y2="910.091" style="stroke:#0B3C49;stroke-width:1.771;"/><text x="1080.626" y="900.794" fill="#10262B" font-size="23.021" font-weight="700" font-family="Calibri">9</text><text x="1099.377" y="900.794" fill="#10262B" font-size="23.021" textLength="448.074" font-family="Calibri">find candidate components with their keywords</text><line x1="1068.23" y1="1047.289" x2="1142.605" y2="1047.289" style="stroke:#0B3C49;stroke-width:1.771;"/><line x1="1142.605" y1="1047.289" x2="1142.605" y2="1070.31" style="stroke:#0B3C49;stroke-width:1.771;"/><line x1="1070.001" y1="1070.31" x2="1142.605" y2="1070.31" style="stroke:#0B3C49;stroke-width:1.771;"/><polygon points="1087.709,1063.226,1070.001,1070.31,1087.709,1077.393,1080.626,1070.31" fill="#0B3C49" style="stroke:#0B3C49;stroke-width:1.771;stroke-linejoin:miter;stroke-miterlimit:10;"/><text x="1080.626" y="995.84" fill="#10262B" font-size="23.021" textLength="23.336" font-weight="700" font-family="Calibri">10</text><text x="1111.045" y="953.687" fill="#10262B" font-size="23.021" textLength="221.317" font-family="Calibri">score (exact keyword 2,</text><text x="1111.045" y="981.789" fill="#10262B" font-size="23.021" textLength="202.006" font-family="Calibri">prefix of 3+ letters 1),</text><text x="1111.045" y="1009.89" fill="#10262B" font-size="23.021" textLength="282.275" font-family="Calibri">apply any / all, order by score,</text><text x="1111.045" y="1037.992" fill="#10262B" font-size="23.021" textLength="291.47" font-family="Calibri">useCount, name, take the page</text><path d="M1050.522,1091.56 L1269.534,1091.56 L1269.534,1105.495 L1251.826,1123.203 L1039.897,1123.203 L1039.897,1102.185 A10.625,10.625 0 0 1 1050.522,1091.56" style="stroke:#1F7A8C;stroke-width:2.656;" fill="#FFF"/><rect x="1039.897" y="1091.56" width="1011.718" height="211.341" fill="none" style="stroke:#1F7A8C;stroke-width:2.656;" rx="10.625" ry="10.625"/><text x="1066.459" y="1115.677" fill="#10262B" font-size="23.021" textLength="149.95" font-weight="700" font-family="Calibri">one transaction</text><polygon points="2002.032,1200.656,2019.74,1207.739,2002.032,1214.823,2009.115,1207.739" fill="#0B3C49" style="stroke:#0B3C49;stroke-width:1.771;stroke-linejoin:miter;stroke-miterlimit:10;"/><line x1="1068.23" y1="1207.739" x2="2012.657" y2="1207.739" style="stroke:#0B3C49;stroke-width:1.771;"/><text x="1080.626" y="1184.392" fill="#10262B" font-size="23.021" textLength="23.336" font-weight="700" font-family="Calibri">11</text><text x="1111.045" y="1170.341" fill="#10262B" font-size="23.021" textLength="260.491" font-family="Calibri">insert SearchQuery and one</text><text x="1111.045" y="1198.443" fill="#10262B" font-size="23.021" textLength="256.399" font-family="Calibri">SearchResult per page item</text><polygon points="2002.032,1281.651,2019.74,1288.734,2002.032,1295.818,2009.115,1288.734" fill="#0B3C49" style="stroke:#0B3C49;stroke-width:1.771;stroke-linejoin:miter;stroke-miterlimit:10;"/><line x1="1068.23" y1="1288.734" x2="2012.657" y2="1288.734" style="stroke:#0B3C49;stroke-width:1.771;"/><text x="1080.626" y="1265.387" fill="#10262B" font-size="23.021" textLength="23.336" font-weight="700" font-family="Calibri">12</text><text x="1111.045" y="1251.336" fill="#10262B" font-size="23.021" textLength="257.489" font-family="Calibri">hits +1 and hits not used +1</text><text x="1111.045" y="1279.437" fill="#10262B" font-size="23.021" textLength="175.365" font-family="Calibri">for each page item</text><polygon points="768.834,1359.336,751.126,1366.419,768.834,1373.503,761.751,1366.419" fill="#0B3C49" style="stroke:#0B3C49;stroke-width:1.771;stroke-linejoin:miter;stroke-miterlimit:10;"/><line x1="758.209" y1="1366.419" x2="1066.459" y2="1366.419" style="stroke:#0B3C49;stroke-width:1.771;stroke-dasharray:3.542,3.542;"/><text x="779.459" y="1357.122" fill="#10262B" font-size="23.021" textLength="23.336" font-weight="700" font-family="Calibri">13</text><text x="809.878" y="1357.122" fill="#10262B" font-size="23.021" textLength="245.956" font-family="Calibri">queryId, items, page, total</text><polygon points="475.464,1412.229,457.755,1419.313,475.464,1426.396,468.38,1419.313" fill="#0B3C49" style="stroke:#0B3C49;stroke-width:1.771;stroke-linejoin:miter;stroke-miterlimit:10;"/><line x1="464.839" y1="1419.313" x2="747.584" y2="1419.313" style="stroke:#0B3C49;stroke-width:1.771;stroke-dasharray:3.542,3.542;"/><text x="486.089" y="1410.016" fill="#10262B" font-size="23.021" textLength="23.336" font-weight="700" font-family="Calibri">14</text><text x="516.507" y="1410.016" fill="#10262B" font-size="23.021" textLength="88.228" font-family="Calibri">200 JSON</text><polygon points="70.833,1493.224,53.125,1500.307,70.833,1507.391,63.75,1500.307" fill="#0B3C49" style="stroke:#0B3C49;stroke-width:1.771;stroke-linejoin:miter;stroke-miterlimit:10;"/><line x1="60.208" y1="1500.307" x2="454.214" y2="1500.307" style="stroke:#0B3C49;stroke-width:1.771;stroke-dasharray:3.542,3.542;"/><text x="81.458" y="1476.96" fill="#10262B" font-size="23.021" textLength="23.336" font-weight="700" font-family="Calibri">15</text><text x="111.877" y="1462.909" fill="#10262B" font-size="23.021" textLength="235.255" font-family="Calibri">ranked results with score</text><text x="111.877" y="1491.011" fill="#10262B" font-size="23.021" textLength="218.192" font-family="Calibri">and matched keywords</text><?plantuml-src RLF1RXen5BplLxpc1CfIGbhra4EhP6abgYWaR58kaIgpVe0LOszjBydswpisB25jRxkUcVV6RvxVALFfHZBvglA3iEODlw-RZSw22fgfPE6gDIrQUkBssJhfgVTG33xrCz44QvhDWbqcgc0TFNXyri85LQbQc40dSrwGgEiJ4fxcRw1TsSAQuApMx2AZBFv3ATbjLSK9Bz_WXTtKrh09HvIYpAG8OY4yqwtrOUMulBkEoFWgow916docELqGTFWP3KPdXulb94nBGn9QvxHK6WIVpQEWBA2udPRtD1Ir6cv7Gv_CPG0w6DRGT65bIyyghEctbPdGWPJP2graGZAAtC7UmiUpC_fnUJqPNzvFfZS_lyvcqrd66bN-KQ172SMkQoy2EJMupKH-wODYwq22AX5uPLsxzqxAGn00KrIZHX5hTAnlYTJhVYSof_qcZDbNR2HcxFj9NIJr-0fgUS1Uswcu4uwhndcrPVhLi6jVXPttOpf05CawNwdoKXa9af4A2J9LNRf-DquifdA7g0xItLWgwvXw_88zx2XqdZ-Qsl5IlP1TqeTJqXnYeZJg0y5MwlOuRqWmCgnvAWO6nblOneISZDXmJa4ySNI1e5UC_YjdcvfWaO8JngErikPesEbIoY2aRfNluc3GKqRLezaTpjWts98QpMDXKe4tVrTPAqpXT9IawTlO4EENE7mqIpmz5dYZn_hNyNRxcM99AOE1NOzitCe6eT-kvJdMydivlS7fF1scPtD1kEKJMhfaU9zA6XQc2MCR4Qery4D4iF07?></g></svg>